<svg xmlns="http://www.w3.org/2000/svg" xmlns:xlink="http://www.w3.org/1999/xlink" contentStyleType="text/css" height="1213px" preserveAspectRatio="none" style="width:1794px;height:1213px;background:#FFFFFF;" version="1.1" viewBox="0 0 1794 1213" width="1794px" zoomAndPan="magnify"><defs/><g><!--class OASDBCException--><g id="elem_OASDBCException"><rect codeLine="3" fill="#F1F1F1" height="80.5938" id="OASDBCException" rx="2.5" ry="2.5" style="stroke:#181818;stroke-width:0.5;" width="425.1709" x="266.08" y="352.01"/><ellipse cx="410.0209" cy="368.01" fill="#ADD1B2" rx="11" ry="11" style="stroke:#181818;stroke-width:1;"/><path d="M412.9897,373.6506 Q412.4115,373.9475 411.7709,374.0881 Q411.1303,374.2444 410.4272,374.2444 Q407.9272,374.2444 406.599,372.6038 Q405.2865,370.9475 405.2865,367.8225 Q405.2865,364.6975 406.599,363.0413 Q407.9272,361.385 410.4272,361.385 Q411.1303,361.385 411.7709,361.5413 Q412.4272,361.6975 412.9897,361.9944 L412.9897,364.7131 Q412.3647,364.135 411.7709,363.8694 Q411.1772,363.5881 410.5522,363.5881 Q409.2084,363.5881 408.5209,364.6663 Q407.8334,365.7288 407.8334,367.8225 Q407.8334,369.9163 408.5209,370.9944 Q409.2084,372.0569 410.5522,372.0569 Q411.1772,372.0569 411.7709,371.7913 Q412.3647,371.51 412.9897,370.9319 L412.9897,373.6506 Z " fill="#000000"/><text fill="#000000" font-family="sans-serif" font-size="14" lengthAdjust="spacing" textLength="128.7891" x="430.5209" y="372.8567">OASDBCException</text><line style="stroke:#181818;stroke-width:0.5;" x1="267.08" x2="690.2509" y1="384.01" y2="384.01"/><rect fill="none" height="6" style="stroke:#C82930;stroke-width:1;" width="6" x="274.08" y="394.6584"/><text fill="#000000" font-family="sans-serif" font-size="14" lengthAdjust="spacing" textLength="231.0889" x="286.08" y="401.0051">#originalError : Error | undefined</text><line style="stroke:#181818;stroke-width:0.5;" x1="267.08" x2="690.2509" y1="408.3069" y2="408.3069"/><ellipse cx="277.08" cy="421.9553" fill="#84BE84" rx="3" ry="3" style="stroke:#038048;stroke-width:1;"/><text fill="#000000" font-family="sans-serif" font-size="14" lengthAdjust="spacing" textLength="399.1709" x="286.08" y="425.302">OASDBCException(message: string, originalError?: Error)</text></g><!--class EHTTPVerb--><g id="elem_EHTTPVerb"><rect codeLine="8" fill="#F1F1F1" height="162.0781" id="EHTTPVerb" rx="2.5" ry="2.5" style="stroke:#181818;stroke-width:0.5;" width="109.752" x="1225.79" y="311.27"/><ellipse cx="1240.79" cy="327.27" fill="#EB937F" rx="11" ry="11" style="stroke:#181818;stroke-width:1;"/><path d="M1244.8994,333.27 L1237.1806,333.27 L1237.1806,320.8794 L1244.8994,320.8794 L1244.8994,323.0356 L1239.6338,323.0356 L1239.6338,325.7075 L1244.3994,325.7075 L1244.3994,327.8638 L1239.6338,327.8638 L1239.6338,331.1138 L1244.8994,331.1138 L1244.8994,333.27 Z " fill="#000000"/><text fill="#000000" font-family="sans-serif" font-size="14" lengthAdjust="spacing" textLength="77.752" x="1254.79" y="332.1167">EHTTPVerb</text><line style="stroke:#181818;stroke-width:0.5;" x1="1226.79" x2="1334.542" y1="343.27" y2="343.27"/><text fill="#000000" font-family="sans-serif" font-size="14" lengthAdjust="spacing" textLength="34.9521" x="1231.79" y="360.2651">head</text><text fill="#000000" font-family="sans-serif" font-size="14" lengthAdjust="spacing" textLength="51.5635" x="1231.79" y="376.562">options</text><text fill="#000000" font-family="sans-serif" font-size="14" lengthAdjust="spacing" textLength="22.9893" x="1231.79" y="392.8589">get</text><text fill="#000000" font-family="sans-serif" font-size="14" lengthAdjust="spacing" textLength="30.2354" x="1231.79" y="409.1557">post</text><text fill="#000000" font-family="sans-serif" font-size="14" lengthAdjust="spacing" textLength="23.249" x="1231.79" y="425.4526">put</text><text fill="#000000" font-family="sans-serif" font-size="14" lengthAdjust="spacing" textLength="39.5254" x="1231.79" y="441.7495">patch</text><text fill="#000000" font-family="sans-serif" font-size="14" lengthAdjust="spacing" textLength="44.1055" x="1231.79" y="458.0464">delete</text><line style="stroke:#181818;stroke-width:0.5;" x1="1226.79" x2="1334.542" y1="465.3481" y2="465.3481"/></g><!--class EMediaType--><g id="elem_EMediaType"><rect codeLine="18" fill="#F1F1F1" height="276.1563" id="EMediaType" rx="2.5" ry="2.5" style="stroke:#181818;stroke-width:0.5;" width="322.208" x="1336.56" y="930.72"/><ellipse cx="1450.7988" cy="946.72" fill="#EB937F" rx="11" ry="11" style="stroke:#181818;stroke-width:1;"/><path d="M1454.9081,952.72 L1447.1894,952.72 L1447.1894,940.3294 L1454.9081,940.3294 L1454.9081,942.4856 L1449.6425,942.4856 L1449.6425,945.1575 L1454.4081,945.1575 L1454.4081,947.3138 L1449.6425,947.3138 L1449.6425,950.5638 L1454.9081,950.5638 L1454.9081,952.72 Z " fill="#000000"/><text fill="#000000" font-family="sans-serif" font-size="14" lengthAdjust="spacing" textLength="85.2305" x="1471.2988" y="951.5667">EMediaType</text><line style="stroke:#181818;stroke-width:0.5;" x1="1337.56" x2="1657.768" y1="962.72" y2="962.72"/><text fill="#000000" font-family="sans-serif" font-size="14" lengthAdjust="spacing" textLength="133.4238" x="1342.56" y="979.7151">APPLICATION_JSON</text><text fill="#000000" font-family="sans-serif" font-size="14" lengthAdjust="spacing" textLength="171.1377" x="1342.56" y="996.012">APPLICATION_GEO_JSON</text><text fill="#000000" font-family="sans-serif" font-size="14" lengthAdjust="spacing" textLength="159.0039" x="1342.56" y="1012.3089">APPLICATION_LD_JSON</text><text fill="#000000" font-family="sans-serif" font-size="14" lengthAdjust="spacing" textLength="128.3857" x="1342.56" y="1028.6057">APPLICATION_XML</text><text fill="#000000" font-family="sans-serif" font-size="14" lengthAdjust="spacing" textLength="72.0098" x="1342.56" y="1044.9026">TEXT_XML</text><text fill="#000000" font-family="sans-serif" font-size="14" lengthAdjust="spacing" textLength="310.208" x="1342.56" y="1061.1995">APPLICATION_X_WWW_FORM_URLENCODED</text><text fill="#000000" font-family="sans-serif" font-size="14" lengthAdjust="spacing" textLength="172.4707" x="1342.56" y="1077.4964">MULTIPART_FORM_DATA</text><text fill="#000000" font-family="sans-serif" font-size="14" lengthAdjust="spacing" textLength="82.9609" x="1342.56" y="1093.7932">TEXT_PLAIN</text><text fill="#000000" font-family="sans-serif" font-size="14" lengthAdjust="spacing" textLength="81.498" x="1342.56" y="1110.0901">TEXT_HTML</text><text fill="#000000" font-family="sans-serif" font-size="14" lengthAdjust="spacing" textLength="210.3281" x="1342.56" y="1126.387">APPLICATION_OCTET_STREAM</text><text fill="#000000" font-family="sans-serif" font-size="14" lengthAdjust="spacing" textLength="82.2432" x="1342.56" y="1142.6839">IMAGE_PNG</text><text fill="#000000" font-family="sans-serif" font-size="14" lengthAdjust="spacing" textLength="84.7451" x="1342.56" y="1158.9807">IMAGE_JPEG</text><text fill="#000000" font-family="sans-serif" font-size="14" lengthAdjust="spacing" textLength="126.1914" x="1342.56" y="1175.2776">APPLICATION_PDF</text><text fill="#000000" font-family="sans-serif" font-size="14" lengthAdjust="spacing" textLength="200.8467" x="1342.56" y="1191.5745">APPLICATION_VENDOR_JSON</text><line style="stroke:#181818;stroke-width:0.5;" x1="1337.56" x2="1657.768" y1="1198.8763" y2="1198.8763"/></g><!--class OASOperationVO--><g id="elem_OASOperationVO"><rect codeLine="35" fill="#F1F1F1" height="227.2656" id="OASOperationVO" rx="2.5" ry="2.5" style="stroke:#181818;stroke-width:0.5;" width="771.4521" x="984.94" y="7"/><ellipse cx="1306.5401" cy="23" fill="#ADD1B2" rx="11" ry="11" style="stroke:#181818;stroke-width:1;"/><path d="M1309.5088,28.6406 Q1308.9307,28.9375 1308.2901,29.0781 Q1307.6495,29.2344 1306.9463,29.2344 Q1304.4463,29.2344 1303.1182,27.5938 Q1301.8057,25.9375 1301.8057,22.8125 Q1301.8057,19.6875 1303.1182,18.0313 Q1304.4463,16.375 1306.9463,16.375 Q1307.6495,16.375 1308.2901,16.5313 Q1308.9463,16.6875 1309.5088,16.9844 L1309.5088,19.7031 Q1308.8838,19.125 1308.2901,18.8594 Q1307.6963,18.5781 1307.0713,18.5781 Q1305.7276,18.5781 1305.0401,19.6563 Q1304.3526,20.7188 1304.3526,22.8125 Q1304.3526,24.9063 1305.0401,25.9844 Q1305.7276,27.0469 1307.0713,27.0469 Q1307.6963,27.0469 1308.2901,26.7813 Q1308.8838,26.5 1309.5088,25.9219 L1309.5088,28.6406 Z " fill="#000000"/><text fill="#000000" font-family="sans-serif" font-size="14" lengthAdjust="spacing" textLength="119.752" x="1327.0401" y="27.8467">OASOperationVO</text><line style="stroke:#181818;stroke-width:0.5;" x1="985.94" x2="1755.3921" y1="39" y2="39"/><rect fill="none" height="6" style="stroke:#C82930;stroke-width:1;" width="6" x="992.94" y="49.6484"/><text fill="#000000" font-family="sans-serif" font-size="14" lengthAdjust="spacing" textLength="122.9102" x="1004.94" y="55.9951">verb : EHTTPVerb</text><rect fill="none" height="6" style="stroke:#C82930;stroke-width:1;" width="6" x="992.94" y="65.9453"/><text fill="#000000" font-family="sans-serif" font-size="14" lengthAdjust="spacing" textLength="91.1025" x="1004.94" y="72.292">route : string</text><rect fill="none" height="6" style="stroke:#C82930;stroke-width:1;" width="6" x="992.94" y="82.2422"/><text fill="#000000" font-family="sans-serif" font-size="14" lengthAdjust="spacing" textLength="135.9326" x="1004.94" y="88.5889">operationID : string</text><rect fill="none" height="6" style="stroke:#C82930;stroke-width:1;" width="6" x="992.94" y="98.5391"/><text fill="#000000" font-family="sans-serif" font-size="14" lengthAdjust="spacing" textLength="159.0107" x="1004.94" y="104.8857">summary : string | null</text><rect fill="none" height="6" style="stroke:#C82930;stroke-width:1;" width="6" x="992.94" y="114.8359"/><text fill="#000000" font-family="sans-serif" font-size="14" lengthAdjust="spacing" textLength="170.7891" x="1004.94" y="121.1826">description : string | null</text><rect fill="none" height="6" style="stroke:#C82930;stroke-width:1;" width="6" x="992.94" y="131.1328"/><text fill="#000000" font-family="sans-serif" font-size="14" lengthAdjust="spacing" textLength="94.9785" x="1004.94" y="137.4795">tags : string[]</text><rect fill="none" height="6" style="stroke:#C82930;stroke-width:1;" width="6" x="992.94" y="147.4297"/><text fill="#000000" font-family="sans-serif" font-size="14" lengthAdjust="spacing" textLength="468.6035" x="1004.94" y="153.7764">parameters : &lt;namespace_for_openapi_types&gt;.ParameterObject[]</text><rect fill="none" height="6" style="stroke:#C82930;stroke-width:1;" width="6" x="992.94" y="163.7266"/><text fill="#000000" font-family="sans-serif" font-size="14" lengthAdjust="spacing" textLength="461.9043" x="1004.94" y="170.0732">body : &lt;namespace_for_openapi_types&gt;.RequestBodyObject | {}</text><rect fill="none" height="6" style="stroke:#C82930;stroke-width:1;" width="6" x="992.94" y="180.0234"/><text fill="#000000" font-family="sans-serif" font-size="14" lengthAdjust="spacing" textLength="563.8623" x="1004.94" y="186.3701">responses : Record&lt;string, &lt;namespace_for_openapi_types&gt;.ResponseObject&gt;</text><line style="stroke:#181818;stroke-width:0.5;" x1="985.94" x2="1755.3921" y1="193.6719" y2="193.6719"/><rect fill="#F24D5C" height="6" style="stroke:#C82930;stroke-width:1;" width="6" x="992.94" y="204.3203"/><text fill="#000000" font-family="sans-serif" font-size="14" lengthAdjust="spacing" textLength="299.3867" x="1004.94" y="210.667">generateOperationID(route: string) : string</text><rect fill="#F24D5C" height="6" style="stroke:#C82930;stroke-width:1;" width="6" x="992.94" y="220.6172"/><text fill="#000000" font-family="sans-serif" font-size="14" lengthAdjust="spacing" textLength="745.4521" x="1004.94" y="226.9639">throwForNonDereferencedOperation(operation: &lt;namespace_for_openapi_types&gt;.OperationObject) : void</text></g><!--class OASRequestBodyVO--><g id="elem_OASRequestBodyVO"><rect codeLine="49" fill="#F1F1F1" height="113.1875" id="OASRequestBodyVO" rx="2.5" ry="2.5" style="stroke:#181818;stroke-width:0.5;" width="254.9219" x="1370.21" y="335.72"/><ellipse cx="1421.9615" cy="351.72" fill="#ADD1B2" rx="11" ry="11" style="stroke:#181818;stroke-width:1;"/><path d="M1424.9302,357.3606 Q1424.3521,357.6575 1423.7115,357.7981 Q1423.0708,357.9544 1422.3677,357.9544 Q1419.8677,357.9544 1418.5396,356.3138 Q1417.2271,354.6575 1417.2271,351.5325 Q1417.2271,348.4075 1418.5396,346.7513 Q1419.8677,345.095 1422.3677,345.095 Q1423.0708,345.095 1423.7115,345.2513 Q1424.3677,345.4075 1424.9302,345.7044 L1424.9302,348.4231 Q1424.3052,347.845 1423.7115,347.5794 Q1423.1177,347.2981 1422.4927,347.2981 Q1421.149,347.2981 1420.4615,348.3763 Q1419.774,349.4388 1419.774,351.5325 Q1419.774,353.6263 1420.4615,354.7044 Q1421.149,355.7669 1422.4927,355.7669 Q1423.1177,355.7669 1423.7115,355.5013 Q1424.3052,355.22 1424.9302,354.6419 L1424.9302,357.3606 Z " fill="#000000"/><text fill="#000000" font-family="sans-serif" font-size="14" lengthAdjust="spacing" textLength="142.9189" x="1442.4615" y="356.5667">OASRequestBodyVO</text><line style="stroke:#181818;stroke-width:0.5;" x1="1371.21" x2="1624.1319" y1="367.72" y2="367.72"/><rect fill="none" height="6" style="stroke:#C82930;stroke-width:1;" width="6" x="1378.21" y="378.3684"/><text fill="#000000" font-family="sans-serif" font-size="14" lengthAdjust="spacing" textLength="128.8643" x="1390.21" y="384.7151">required : boolean</text><rect fill="none" height="6" style="stroke:#C82930;stroke-width:1;" width="6" x="1378.21" y="394.6653"/><text fill="#000000" font-family="sans-serif" font-size="14" lengthAdjust="spacing" textLength="170.7891" x="1390.21" y="401.012">description : string | null</text><rect fill="none" height="6" style="stroke:#C82930;stroke-width:1;" width="6" x="1378.21" y="410.9622"/><text fill="#000000" font-family="sans-serif" font-size="14" lengthAdjust="spacing" textLength="228.9219" x="1390.21" y="417.3089">content : OASContentsCollection</text><ellipse cx="1381.21" cy="430.2591" fill="none" rx="3" ry="3" style="stroke:#038048;stroke-width:1;"/><text fill="#000000" font-family="sans-serif" font-size="14" lengthAdjust="spacing" textLength="171.1719" x="1390.21" y="433.6057">isEmpty : boolean {get}</text><line style="stroke:#181818;stroke-width:0.5;" x1="1371.21" x2="1624.1319" y1="440.9075" y2="440.9075"/></g><!--class OASContentsCollection--><g id="elem_OASContentsCollection"><rect codeLine="56" fill="#F1F1F1" height="113.1875" id="OASContentsCollection" rx="2.5" ry="2.5" style="stroke:#181818;stroke-width:0.5;" width="452.0908" x="1271.62" y="550.35"/><ellipse cx="1412.5634" cy="566.35" fill="#ADD1B2" rx="11" ry="11" style="stroke:#181818;stroke-width:1;"/><path d="M1415.5321,571.9906 Q1414.954,572.2875 1414.3134,572.4281 Q1413.6727,572.5844 1412.9696,572.5844 Q1410.4696,572.5844 1409.1415,570.9438 Q1407.829,569.2875 1407.829,566.1625 Q1407.829,563.0375 1409.1415,561.3813 Q1410.4696,559.725 1412.9696,559.725 Q1413.6727,559.725 1414.3134,559.8813 Q1414.9696,560.0375 1415.5321,560.3344 L1415.5321,563.0531 Q1414.9071,562.475 1414.3134,562.2094 Q1413.7196,561.9281 1413.0946,561.9281 Q1411.7509,561.9281 1411.0634,563.0063 Q1410.3759,564.0688 1410.3759,566.1625 Q1410.3759,568.2563 1411.0634,569.3344 Q1411.7509,570.3969 1413.0946,570.3969 Q1413.7196,570.3969 1414.3134,570.1313 Q1414.9071,569.85 1415.5321,569.2719 L1415.5321,571.9906 Z " fill="#000000"/><text fill="#000000" font-family="sans-serif" font-size="14" lengthAdjust="spacing" textLength="161.7041" x="1433.0634" y="571.1967">OASContentsCollection</text><line style="stroke:#181818;stroke-width:0.5;" x1="1272.62" x2="1722.7108" y1="582.35" y2="582.35"/><rect fill="none" height="6" style="stroke:#C82930;stroke-width:1;" width="6" x="1279.62" y="592.9984"/><text fill="#000000" font-family="sans-serif" font-size="14" lengthAdjust="spacing" textLength="189.9297" x="1291.62" y="599.3451">items : OASMediaTypeVO[]</text><rect fill="none" height="6" style="stroke:#C82930;stroke-width:1;" width="6" x="1279.62" y="609.2953"/><text fill="#000000" font-family="sans-serif" font-size="14" lengthAdjust="spacing" textLength="213.0693" x="1291.62" y="615.642">types : EMediaType[] | string[]</text><ellipse cx="1282.62" cy="628.5922" fill="none" rx="3" ry="3" style="stroke:#038048;stroke-width:1;"/><text fill="#000000" font-family="sans-serif" font-size="14" lengthAdjust="spacing" textLength="171.1719" x="1291.62" y="631.9389">isEmpty : boolean {get}</text><line style="stroke:#181818;stroke-width:0.5;" x1="1272.62" x2="1722.7108" y1="639.2406" y2="639.2406"/><ellipse cx="1282.62" cy="652.8891" fill="#84BE84" rx="3" ry="3" style="stroke:#038048;stroke-width:1;"/><text fill="#000000" font-family="sans-serif" font-size="14" lengthAdjust="spacing" textLength="426.0908" x="1291.62" y="656.2357">findType(type: EMediaType | string): OASMediaTypeVO | null</text></g><!--class OASMediaTypeVO--><g id="elem_OASMediaTypeVO"><rect codeLine="63" fill="#F1F1F1" height="113.1875" id="OASMediaTypeVO" rx="2.5" ry="2.5" style="stroke:#181818;stroke-width:0.5;" width="579.3418" x="1208" y="740.54"/><ellipse cx="1430.1885" cy="756.54" fill="#ADD1B2" rx="11" ry="11" style="stroke:#181818;stroke-width:1;"/><path d="M1433.1572,762.1806 Q1432.5791,762.4775 1431.9385,762.6181 Q1431.2979,762.7744 1430.5947,762.7744 Q1428.0947,762.7744 1426.7666,761.1338 Q1425.4541,759.4775 1425.4541,756.3525 Q1425.4541,753.2275 1426.7666,751.5713 Q1428.0947,749.915 1430.5947,749.915 Q1431.2979,749.915 1431.9385,750.0713 Q1432.5947,750.2275 1433.1572,750.5244 L1433.1572,753.2431 Q1432.5322,752.665 1431.9385,752.3994 Q1431.3447,752.1181 1430.7197,752.1181 Q1429.376,752.1181 1428.6885,753.1963 Q1428.001,754.2588 1428.001,756.3525 Q1428.001,758.4463 1428.6885,759.5244 Q1429.376,760.5869 1430.7197,760.5869 Q1431.3447,760.5869 1431.9385,760.3213 Q1432.5322,760.04 1433.1572,759.4619 L1433.1572,762.1806 Z " fill="#000000"/><text fill="#000000" font-family="sans-serif" font-size="14" lengthAdjust="spacing" textLength="126.4648" x="1450.6885" y="761.3867">OASMediaTypeVO</text><line style="stroke:#181818;stroke-width:0.5;" x1="1209" x2="1786.3418" y1="772.54" y2="772.54"/><rect fill="none" height="6" style="stroke:#C82930;stroke-width:1;" width="6" x="1216" y="783.1884"/><text fill="#000000" font-family="sans-serif" font-size="14" lengthAdjust="spacing" textLength="183.9277" x="1228" y="789.5351">type : EMediaType | string</text><rect fill="none" height="6" style="stroke:#C82930;stroke-width:1;" width="6" x="1216" y="799.4853"/><text fill="#000000" font-family="sans-serif" font-size="14" lengthAdjust="spacing" textLength="445.293" x="1228" y="805.832">definition : &lt;namespace_for_openapi_types&gt;.MediaTypeObject</text><rect fill="none" height="6" style="stroke:#C82930;stroke-width:1;" width="6" x="1216" y="815.7822"/><text fill="#000000" font-family="sans-serif" font-size="14" lengthAdjust="spacing" textLength="413.9912" x="1228" y="822.1289">schema : &lt;namespace_for_openapi_types&gt;.SchemaObject</text><rect fill="none" height="6" style="stroke:#C82930;stroke-width:1;" width="6" x="1216" y="832.0791"/><text fill="#000000" font-family="sans-serif" font-size="14" lengthAdjust="spacing" textLength="553.3418" x="1228" y="838.4257">examples : Record&lt;string, &lt;namespace_for_openapi_types&gt;.ExampleObject&gt;</text><line style="stroke:#181818;stroke-width:0.5;" x1="1209" x2="1786.3418" y1="845.7275" y2="845.7275"/></g><!--class OASJSONDefinitionsRetrieveService--><g id="elem_OASJSONDefinitionsRetrieveService"><rect codeLine="70" fill="#F1F1F1" height="210.9688" id="OASJSONDefinitionsRetrieveService" rx="2.5" ry="2.5" style="stroke:#181818;stroke-width:0.5;" width="943.335" x="7" y="15.15"/><ellipse cx="349.5146" cy="31.15" fill="#ADD1B2" rx="11" ry="11" style="stroke:#181818;stroke-width:1;"/><path d="M352.4834,36.7906 Q351.9053,37.0875 351.2646,37.2281 Q350.624,37.3844 349.9209,37.3844 Q347.4209,37.3844 346.0928,35.7438 Q344.7803,34.0875 344.7803,30.9625 Q344.7803,27.8375 346.0928,26.1813 Q347.4209,24.525 349.9209,24.525 Q350.624,24.525 351.2646,24.6813 Q351.9209,24.8375 352.4834,25.1344 L352.4834,27.8531 Q351.8584,27.275 351.2646,27.0094 Q350.6709,26.7281 350.0459,26.7281 Q348.7021,26.7281 348.0146,27.8063 Q347.3271,28.8688 347.3271,30.9625 Q347.3271,33.0563 348.0146,34.1344 Q348.7021,35.1969 350.0459,35.1969 Q350.6709,35.1969 351.2646,34.9313 Q351.8584,34.65 352.4834,34.0719 L352.4834,36.7906 Z " fill="#000000"/><text fill="#000000" font-family="sans-serif" font-size="14" lengthAdjust="spacing" textLength="249.8057" x="370.0146" y="35.9967">OASJSONDefinitionsRetrieveService</text><line style="stroke:#181818;stroke-width:0.5;" x1="8" x2="949.335" y1="47.15" y2="47.15"/><line style="stroke:#181818;stroke-width:0.5;" x1="8" x2="949.335" y1="55.15" y2="55.15"/><rect fill="#F24D5C" height="6" style="stroke:#C82930;stroke-width:1;" width="6" x="15" y="65.7984"/><text fill="#000000" font-family="sans-serif" font-size="14" lengthAdjust="spacing" textLength="320.0039" x="27" y="72.1451">retrieveFile(source: string) : Promise&lt;string&gt;</text><rect fill="#F24D5C" height="6" style="stroke:#C82930;stroke-width:1;" width="6" x="15" y="82.0953"/><text fill="#000000" font-family="sans-serif" font-size="14" lengthAdjust="spacing" textLength="295.0527" x="27" y="88.442">retrieveURL(url: string) : Promise&lt;string&gt;</text><rect fill="#F24D5C" height="6" style="stroke:#C82930;stroke-width:1;" width="6" x="15" y="98.3922"/><text fill="#000000" font-family="sans-serif" font-size="14" lengthAdjust="spacing" textLength="187.3457" x="27" y="104.7389">isURL(url: string) : boolean</text><rect fill="#F24D5C" height="6" style="stroke:#C82930;stroke-width:1;" width="6" x="15" y="114.6891"/><text fill="#000000" font-family="sans-serif" font-size="14" lengthAdjust="spacing" textLength="298.8398" x="27" y="121.0357">isActualLocalFile(filePath: string) : boolean</text><rect fill="#F24D5C" height="6" style="stroke:#C82930;stroke-width:1;" width="6" x="15" y="130.9859"/><text fill="#000000" font-family="sans-serif" font-size="14" lengthAdjust="spacing" textLength="306.7969" x="27" y="137.3326">getAbsoluteFilePath(filePath: string) : string</text><rect fill="#F24D5C" height="6" style="stroke:#C82930;stroke-width:1;" width="6" x="15" y="147.2828"/><text fill="#000000" font-family="sans-serif" font-size="14" lengthAdjust="spacing" textLength="385.1504" x="27" y="153.6295">checkFileExistsOrThrow(absoluteFilePath: string) : true</text><rect fill="#F24D5C" height="6" style="stroke:#C82930;stroke-width:1;" width="6" x="15" y="163.5797"/><text fill="#000000" font-family="sans-serif" font-size="14" lengthAdjust="spacing" textLength="566.5146" x="27" y="169.9264">getActualRetrieveMethod(isURL: boolean) : (source: string) =&gt; Promise&lt;string&gt;</text><rect fill="#F24D5C" height="6" style="stroke:#C82930;stroke-width:1;" width="6" x="15" y="179.8766"/><text fill="#000000" font-family="sans-serif" font-size="14" lengthAdjust="spacing" textLength="599.6826" x="27" y="186.2232">parseOrThrow(content: string | object) : &lt;namespace_for_openapi_types&gt;.Document</text><rect fill="#F24D5C" height="6" style="stroke:#C82930;stroke-width:1;" width="6" x="15" y="196.1734"/><text fill="#000000" font-family="sans-serif" font-size="14" lengthAdjust="spacing" textLength="917.335" x="27" y="202.5201">getValidOASDefinitionsOrThrow(json: &lt;namespace_for_openapi_types&gt;.Document) : &lt;namespace_for_openapi_types&gt;.Document</text><rect fill="#F24D5C" height="6" style="stroke:#C82930;stroke-width:1;" width="6" x="15" y="212.4703"/><text fill="#000000" font-family="sans-serif" font-size="14" lengthAdjust="spacing" textLength="325.4521" x="27" y="218.817">isStringMaybeJSON(value: unknown) : boolean</text></g><!--link OASOperationVO to OASRequestBodyVO--><g id="link_OASOperationVO_OASRequestBodyVO"><path codeLine="83" d="M1423.79,234.44 C1440.17,269.22 1454.9439,300.5917 1468.6939,329.7917 " fill="none" id="OASOperationVO-to-OASRequestBodyVO" style="stroke:#181818;stroke-width:1;"/><polygon fill="#181818" points="1471.25,335.22,1471.0347,325.3735,1469.1199,330.6964,1463.797,328.7817,1471.25,335.22" style="stroke:#181818;stroke-width:1;"/><text fill="#000000" font-family="sans-serif" font-size="13" lengthAdjust="spacing" textLength="29.7832" x="1445.67" y="277.3369">uses</text></g><!--link OASRequestBodyVO to OASContentsCollection--><g id="link_OASRequestBodyVO_OASContentsCollection"><path codeLine="84" d="M1497.67,449.18 C1497.67,480.31 1497.67,512.95 1497.67,544.08 " fill="none" id="OASRequestBodyVO-to-OASContentsCollection" style="stroke:#181818;stroke-width:1;"/><polygon fill="#181818" points="1497.67,550.08,1501.67,541.08,1497.67,545.08,1493.67,541.08,1497.67,550.08" style="stroke:#181818;stroke-width:1;"/><text fill="#000000" font-family="sans-serif" font-size="13" lengthAdjust="spacing" textLength="55.0278" x="1498.67" y="516.4169">contains</text></g><!--link OASContentsCollection to OASMediaTypeVO--><g id="link_OASContentsCollection_OASMediaTypeVO"><path codeLine="85" d="M1497.67,663.9 C1497.67,687.95 1497.67,710 1497.67,734.07 " fill="none" id="OASContentsCollection-to-OASMediaTypeVO" style="stroke:#181818;stroke-width:1;"/><polygon fill="#181818" points="1497.67,740.07,1501.67,731.07,1497.67,735.07,1493.67,731.07,1497.67,740.07" style="stroke:#181818;stroke-width:1;"/><text fill="#000000" font-family="sans-serif" font-size="13" lengthAdjust="spacing" textLength="55.0278" x="1498.67" y="706.6069">contains</text></g><!--link OASMediaTypeVO to EMediaType--><g id="link_OASMediaTypeVO_EMediaType"><path codeLine="86" d="M1497.67,854.01 C1497.67,876.45 1497.67,897.41 1497.67,924.5 " fill="none" id="OASMediaTypeVO-to-EMediaType" style="stroke:#181818;stroke-width:1;"/><polygon fill="#181818" points="1497.67,930.5,1501.67,921.5,1497.67,925.5,1493.67,921.5,1497.67,930.5" style="stroke:#181818;stroke-width:1;"/><text fill="#000000" font-family="sans-serif" font-size="13" lengthAdjust="spacing" textLength="99.2583" x="1498.67" y="896.7869">&#171;enumeration&#187;</text></g><!--link OASOperationVO to EHTTPVerb--><g id="link_OASOperationVO_EHTTPVerb"><path codeLine="87" d="M1325.95,234.55 C1322.35,244.56 1318.87,254.57 1315.67,264.27 C1310.73,279.26 1307.5307,289.6258 1303.1307,305.2058 " fill="none" id="OASOperationVO-to-EHTTPVerb" style="stroke:#181818;stroke-width:1;"/><polygon fill="#181818" points="1301.5,310.98,1307.7955,303.4059,1302.8589,306.1682,1300.0966,301.2316,1301.5,310.98" style="stroke:#181818;stroke-width:1;"/><text fill="#000000" font-family="sans-serif" font-size="13" lengthAdjust="spacing" textLength="99.2583" x="1316.67" y="277.3369">&#171;enumeration&#187;</text></g><!--link OASJSONDefinitionsRetrieveService to OASDBCException--><g id="link_OASJSONDefinitionsRetrieveService_OASDBCException"><path codeLine="88" d="M478.67,226.29 C478.67,270.26 478.67,312.74 478.67,345.71 " fill="none" id="OASJSONDefinitionsRetrieveService-to-OASDBCException" style="stroke:#181818;stroke-width:1;"/><polygon fill="#181818" points="478.67,351.71,482.67,342.71,478.67,346.71,474.67,342.71,478.67,351.71" style="stroke:#181818;stroke-width:1;"/><text fill="#000000" font-family="sans-serif" font-size="13" lengthAdjust="spacing" textLength="44.04" x="479.67" y="277.3369">throws</text></g><!--SRC=[ZLPTZviu57tFhs3L5qRRMMcrRz5iLZIGQQeae8HcAbKLSk1EuXPirZRfHDFvxsk3COOmcXqf0znxp_7zXjyoUCG4dB04uaNB_L_9dyuTGGNm4gMGF5AMKAb29Kx4fGG-SoQJD4USEw6typ_CWwSKIe4fSPudZloxTTvHXe-Oe3nWZ39dwZJNNqv5chEosl3t8O4hp-Je25E72uR9yRtJ8_f74zrCNYOJ85NX11_ZEDe3E-YZJu0QQbhpyVh-2AA-bfJhcqfVaKXFzLq6EGZeQDUGOHJBO3Ml5qMhvToBb-4c-RGBDrV2-o0SLwpySVcNzQgMnS6Ns3pq39A7XuTa4MxNoUVjAjZCGp_mQwlrvrMyZBnjt6XzB_OwgcZbBJVTuyTuX3gSnq6SxE9juArhvNBjtGT9jBctdZv5mVqLCl8NLx9ziF73RHFbYzKPifqOKbNOXwOnpgfKqwviMine9S1fgww5jCKl_Q6ALqM1sCM8PMUHAi-rDWEUCjnqvBY5G4TkL5-_QMc9c6nw0Kpfh67u8seLuU4xfC803ZIx34oty6y5N7oGciPO7lpyqeOf9qes9IZ-BQIKPNTjd_Sv6hE6OAR1Ho0g7n1sQN7hlBLnt0op94wC_bnGjg741mQFyaTIo0o1QpBSZy4OD0uetZF5MQ-uLfnMUPcKOWQPH1mepG6H_rsIb181HAXqUhjvyy3dDC-b1nAbzmNcGL6AIyVlFClfVkcvTWqs_c411M-EC1E-3qqzw-scsjCeltwJNlRQv7KV6gtSRfb2kehCfZ94DyFpsqJOGTZgPyizPvJIP5cUZdMIxOeQH5FHTehI4nHeOBghXJqxU495cR_LjK5ZrJQj7OnQ3RxnZMz1mk4CEs1dd8BLFOryWNDmEQrOskljYD42Sz27pmOWkIFTYkLl0p0VCUrtA-PUAYgKhsYAyjgRH_alGkBqEaQsW7VWD9S3kT36ewXUmMIkqn_AF7Z2NF2GnMfaNJGWil62LM0TMVlP9dGDuaGpjuxG-AT0LzdyU_PATkGEb8j7-w5dqXfOQZQ2NNgVfbKX3Jk_zYZ7cNgvTrLlIR_puRvfuM_GOhwhtLYZom5KIxbdb5Sog8hy8FGdiMiYks_m1hgzdLtlBOcLstXo9TV68vjaMYygX4cD6Z7GK7j- -nXReuojSPuwTtVg-qDxFPkD1T5zyeoQlp5hshtULzkqULFm_m00]--></g></svg>